<mxfile host="app.diagrams.net" agent="Mozilla/5.0 (Windows NT 10.0; Win64; x64) AppleWebKit/537.36 (KHTML, like Gecko) Chrome/138.0.0.0 Safari/537.36" version="28.2.1">
  <diagram id="HYV2ZiRfSuyIHgZ4jGP3" name="ページ1">
    <mxGraphModel dx="786" dy="417" grid="1" gridSize="10" guides="1" tooltips="1" connect="1" arrows="1" fold="1" page="1" pageScale="1" pageWidth="827" pageHeight="1169" math="0" shadow="0">
      <root>
        <mxCell id="0" />
        <mxCell id="1" parent="0" />
        <mxCell id="eNCXiYZoZ-Gf2gYoyJRO-2" value="学生" style="shape=umlActor;verticalLabelPosition=bottom;verticalAlign=top;html=1;" vertex="1" parent="1">
          <mxGeometry x="130" y="130" width="30" height="60" as="geometry" />
        </mxCell>
        <mxCell id="eNCXiYZoZ-Gf2gYoyJRO-4" value="メニュー画面をクリックする" style="text;html=1;align=center;verticalAlign=middle;whiteSpace=wrap;rounded=0;" vertex="1" parent="1">
          <mxGeometry x="190" y="70" width="100" height="30" as="geometry" />
        </mxCell>
        <mxCell id="eNCXiYZoZ-Gf2gYoyJRO-7" value="" style="endArrow=classic;html=1;rounded=0;entryX=0.027;entryY=0.567;entryDx=0;entryDy=0;entryPerimeter=0;" edge="1" parent="1" source="eNCXiYZoZ-Gf2gYoyJRO-2" target="eNCXiYZoZ-Gf2gYoyJRO-8">
          <mxGeometry width="50" height="50" relative="1" as="geometry">
            <mxPoint x="200" y="200" as="sourcePoint" />
            <mxPoint x="310" y="200" as="targetPoint" />
          </mxGeometry>
        </mxCell>
        <mxCell id="eNCXiYZoZ-Gf2gYoyJRO-8" value="メニュー画面" style="shape=umlBoundary;whiteSpace=wrap;html=1;" vertex="1" parent="1">
          <mxGeometry x="300" y="80" width="100" height="80" as="geometry" />
        </mxCell>
        <mxCell id="eNCXiYZoZ-Gf2gYoyJRO-9" value="表示する" style="ellipse;shape=umlControl;whiteSpace=wrap;html=1;fillColor=none;" vertex="1" parent="1">
          <mxGeometry x="470" y="120" width="70" height="80" as="geometry" />
        </mxCell>
        <mxCell id="eNCXiYZoZ-Gf2gYoyJRO-10" value="" style="endArrow=classic;html=1;rounded=0;entryX=0.086;entryY=0.458;entryDx=0;entryDy=0;entryPerimeter=0;" edge="1" parent="1" source="eNCXiYZoZ-Gf2gYoyJRO-8" target="eNCXiYZoZ-Gf2gYoyJRO-9">
          <mxGeometry width="50" height="50" relative="1" as="geometry">
            <mxPoint x="260" y="213" as="sourcePoint" />
            <mxPoint x="403" y="190" as="targetPoint" />
          </mxGeometry>
        </mxCell>
        <mxCell id="eNCXiYZoZ-Gf2gYoyJRO-11" value="学生登録画面" style="shape=umlBoundary;whiteSpace=wrap;html=1;" vertex="1" parent="1">
          <mxGeometry x="300" y="210" width="100" height="80" as="geometry" />
        </mxCell>
        <mxCell id="eNCXiYZoZ-Gf2gYoyJRO-12" value="" style="endArrow=classic;html=1;rounded=0;entryX=0.967;entryY=0.367;entryDx=0;entryDy=0;entryPerimeter=0;" edge="1" parent="1" source="eNCXiYZoZ-Gf2gYoyJRO-9" target="eNCXiYZoZ-Gf2gYoyJRO-11">
          <mxGeometry width="50" height="50" relative="1" as="geometry">
            <mxPoint x="450" y="200" as="sourcePoint" />
            <mxPoint x="521" y="218" as="targetPoint" />
          </mxGeometry>
        </mxCell>
        <mxCell id="eNCXiYZoZ-Gf2gYoyJRO-13" value="学生情報を登録する" style="text;html=1;align=center;verticalAlign=middle;whiteSpace=wrap;rounded=0;" vertex="1" parent="1">
          <mxGeometry x="200" y="290" width="80" height="40" as="geometry" />
        </mxCell>
        <mxCell id="eNCXiYZoZ-Gf2gYoyJRO-14" value="" style="endArrow=classic;html=1;rounded=0;entryX=-0.007;entryY=0.567;entryDx=0;entryDy=0;entryPerimeter=0;" edge="1" parent="1" source="eNCXiYZoZ-Gf2gYoyJRO-2" target="eNCXiYZoZ-Gf2gYoyJRO-11">
          <mxGeometry width="50" height="50" relative="1" as="geometry">
            <mxPoint x="200" y="213" as="sourcePoint" />
            <mxPoint x="343" y="190" as="targetPoint" />
          </mxGeometry>
        </mxCell>
        <mxCell id="eNCXiYZoZ-Gf2gYoyJRO-15" value="学生情報登録" style="ellipse;shape=umlControl;whiteSpace=wrap;html=1;fillColor=none;" vertex="1" parent="1">
          <mxGeometry x="510" y="280" width="80" height="80" as="geometry" />
        </mxCell>
        <mxCell id="eNCXiYZoZ-Gf2gYoyJRO-16" value="" style="endArrow=classic;html=1;rounded=0;entryX=0.058;entryY=0.592;entryDx=0;entryDy=0;entryPerimeter=0;exitX=0.987;exitY=0.608;exitDx=0;exitDy=0;exitPerimeter=0;" edge="1" parent="1" source="eNCXiYZoZ-Gf2gYoyJRO-11" target="eNCXiYZoZ-Gf2gYoyJRO-15">
          <mxGeometry width="50" height="50" relative="1" as="geometry">
            <mxPoint x="519" y="280" as="sourcePoint" />
            <mxPoint x="440" y="337" as="targetPoint" />
          </mxGeometry>
        </mxCell>
        <mxCell id="eNCXiYZoZ-Gf2gYoyJRO-17" value="学生オブジェクト&lt;div&gt;（データ）&lt;/div&gt;" style="ellipse;shape=umlEntity;whiteSpace=wrap;html=1;" vertex="1" parent="1">
          <mxGeometry x="680" y="280" width="80" height="80" as="geometry" />
        </mxCell>
        <mxCell id="eNCXiYZoZ-Gf2gYoyJRO-18" value="" style="endArrow=classic;startArrow=classic;html=1;rounded=0;exitX=0.958;exitY=0.533;exitDx=0;exitDy=0;exitPerimeter=0;entryX=0;entryY=0.5;entryDx=0;entryDy=0;fillColor=#f8cecc;strokeColor=#b85450;" edge="1" parent="1" source="eNCXiYZoZ-Gf2gYoyJRO-15" target="eNCXiYZoZ-Gf2gYoyJRO-17">
          <mxGeometry width="50" height="50" relative="1" as="geometry">
            <mxPoint x="610" y="440" as="sourcePoint" />
            <mxPoint x="660" y="390" as="targetPoint" />
          </mxGeometry>
        </mxCell>
        <mxCell id="eNCXiYZoZ-Gf2gYoyJRO-20" value="登録の成功、失敗&lt;div&gt;既に存在する学生かもしれない&lt;/div&gt;" style="text;html=1;align=center;verticalAlign=middle;whiteSpace=wrap;rounded=0;" vertex="1" parent="1">
          <mxGeometry x="590" y="360" width="130" height="70" as="geometry" />
        </mxCell>
        <mxCell id="eNCXiYZoZ-Gf2gYoyJRO-21" value="&lt;ol&gt;&lt;li&gt;&lt;font style=&quot;font-size: 17px;&quot;&gt;&lt;b&gt;境界オブジェクト&lt;/b&gt;&lt;/font&gt;&lt;/li&gt;&lt;li&gt;&lt;font style=&quot;font-size: 17px;&quot;&gt;&lt;b&gt;制御オブジェクト&lt;/b&gt;&lt;/font&gt;&lt;/li&gt;&lt;li&gt;&lt;font style=&quot;font-size: 17px;&quot;&gt;&lt;b&gt;実体オブジェクト&lt;/b&gt;&lt;/font&gt;&lt;/li&gt;&lt;/ol&gt;" style="text;html=1;align=center;verticalAlign=middle;whiteSpace=wrap;rounded=0;" vertex="1" parent="1">
          <mxGeometry x="160" y="370" width="200" height="50" as="geometry" />
        </mxCell>
      </root>
    </mxGraphModel>
  </diagram>
</mxfile>
